<?xml version="1.0" encoding="utf-8"?>
<!-- Generator: Adobe Illustrator 16.0.4, SVG Export Plug-In . SVG Version: 6.00 Build 0)  -->
<!DOCTYPE svg PUBLIC "-//W3C//DTD SVG 1.1//EN" "http://www.w3.org/Graphics/SVG/1.1/DTD/svg11.dtd">
<svg version="1.1" id="Layer_1" xmlns="http://www.w3.org/2000/svg" xmlns:xlink="http://www.w3.org/1999/xlink" x="0px" y="0px"
	 width="500px" height="500px" viewBox="0 0 500 500" enable-background="new 0 0 500 500" xml:space="preserve">
<path d="M376.953,237.629l58.504-57.637v255.469c0,34.352-27.852,62.207-62.207,62.207H62.207C27.855,497.668,0,469.812,0,435.461
	V124.418c0-34.355,27.855-62.211,62.207-62.211H317.66l-59.848,58.234H58.594v318.359h318.359V237.629z M377.467,57.241
	l62.967,62.985l20.993-20.986l-62.968-62.985L377.467,57.241z M434.209,0.486L413.22,21.476l62.968,62.968l20.989-20.989
	L434.209,0.486z M171.285,263.473L360.195,74.52l62.969,62.984l-188.91,188.938l-91.703,28.676L171.285,263.473z M202.594,265.855
	l10.77,10.953l161.938-159.184l-10.77-10.953L202.594,265.855z"/>
</svg>
